<?xml version="1.0" standalone="no"?>
<!DOCTYPE svg PUBLIC "-//W3C//DTD SVG 20010904//EN"
 "http://www.w3.org/TR/2001/REC-SVG-20010904/DTD/svg10.dtd">
<svg version="1.0" xmlns="http://www.w3.org/2000/svg"
 width="920.000000pt" height="920.000000pt" viewBox="0 0 920.000000 920.000000"
 preserveAspectRatio="xMidYMid meet">

<g transform="translate(0.000000,920.000000) scale(0.100000,-0.100000)"
fill="#000000" stroke="none">
<path d="M639 7885 c-47 -15 -129 -85 -129 -111 0 -8 -5 -14 -11 -14 -5 0 -8
-4 -4 -9 3 -5 1 -12 -4 -16 -6 -3 -9 -43 -8 -89 2 -74 5 -87 30 -120 60 -78
96 -98 272 -151 66 -20 147 -45 180 -55 33 -11 132 -43 220 -72 132 -42 221
-78 194 -78 -3 0 17 -24 45 -52 28 -29 94 -100 146 -157 52 -58 106 -117 120
-132 92 -99 88 -90 131 -272 23 -95 42 -179 44 -187 2 -8 8 -33 13 -55 6 -22
13 -51 16 -65 3 -14 16 -70 30 -125 24 -94 40 -164 51 -210 7 -34 33 -138 44
-180 5 -22 12 -51 15 -65 3 -14 10 -43 15 -65 5 -22 12 -51 15 -65 3 -14 11
-45 17 -70 6 -25 13 -54 14 -65 2 -11 11 -45 19 -77 8 -31 18 -67 20 -80 3
-12 14 -59 24 -103 11 -44 31 -132 46 -195 15 -63 33 -137 41 -165 8 -27 17
-61 19 -75 8 -44 45 -207 50 -221 3 -8 7 -25 10 -39 2 -14 11 -52 19 -85 9
-33 18 -73 21 -88 3 -16 10 -43 15 -60 6 -18 12 -43 15 -57 2 -14 14 -63 26
-110 19 -76 29 -121 44 -185 2 -11 23 -95 45 -187 22 -92 42 -178 45 -190 2
-13 11 -51 20 -86 9 -34 21 -82 26 -105 5 -23 18 -82 30 -132 12 -49 23 -99
25 -110 3 -11 12 -49 21 -84 9 -36 18 -72 20 -80 41 -174 62 -214 124 -232 23
-6 860 -9 2520 -7 l2485 3 37 28 c43 33 61 77 52 126 -9 49 -31 85 -66 105
-27 16 -186 18 -2450 19 l-2421 2 -12 45 c-24 85 -115 474 -115 489 0 4 1128
7 2508 7 2389 -1 2509 -1 2544 16 59 28 73 62 118 273 12 55 39 174 60 265 21
91 57 248 80 350 23 102 44 194 46 205 3 11 7 31 10 45 3 14 13 57 23 95 10
39 23 95 30 125 10 50 29 129 92 405 12 50 27 117 34 150 7 33 21 92 30 130
22 95 23 99 25 105 1 3 2 8 1 12 0 3 6 28 14 55 8 26 17 64 20 83 3 19 17 82
31 140 14 58 28 116 30 130 3 14 14 61 24 105 15 62 74 320 95 415 2 8 16 67
30 130 15 63 28 139 28 168 1 48 -2 56 -36 90 l-37 37 -3324 3 -3323 2 -63 68
c-34 37 -90 96 -124 132 -64 67 -82 95 -66 105 5 3 8 43 7 88 -2 68 -6 88 -25
115 -13 17 -21 32 -18 32 3 0 -6 11 -19 24 -13 13 -55 36 -92 51 -37 14 -77
30 -88 35 -11 4 -47 16 -80 25 -33 9 -107 32 -165 51 -58 18 -177 57 -265 85
-88 28 -179 58 -203 65 -53 17 -103 17 -163 -1z m3085 -1187 c3 -18 12 -91 21
-163 9 -71 18 -143 20 -160 3 -16 7 -48 9 -70 3 -22 12 -96 20 -165 9 -69 16
-131 16 -137 0 -10 -163 -13 -783 -13 -620 0 -784 3 -784 13 0 6 -8 41 -18 77
-9 36 -18 72 -20 80 -2 8 -8 35 -14 60 -5 25 -12 56 -15 70 -3 14 -22 90 -41
170 -20 80 -38 158 -41 174 -3 16 -10 40 -15 53 -5 13 -9 29 -9 34 0 5 320 9
825 9 l824 0 5 -32z m2791 -50 c-4 -46 -9 -94 -10 -108 -2 -14 -6 -65 -10
-115 -4 -49 -13 -146 -21 -215 -8 -69 -14 -146 -14 -172 l0 -48 -1183 0 -1183
0 -11 98 c-7 53 -23 189 -37 302 -14 113 -28 227 -31 255 -3 27 -8 58 -11 67
-5 17 55 18 1256 18 l1262 0 -7 -82z m1895 78 c0 -5 -33 -148 -65 -281 -14
-55 -26 -112 -29 -125 -2 -14 -5 -25 -6 -25 -1 0 -3 -9 -5 -20 -3 -18 -42
-195 -49 -220 -2 -5 -6 -22 -11 -37 l-7 -28 -749 0 c-707 0 -749 1 -749 18 0
9 7 89 15 177 29 321 35 391 41 468 l7 77 803 0 c442 0 804 -2 804 -4z m-4556
-1059 c3 -23 8 -62 10 -87 13 -108 18 -147 22 -170 2 -14 9 -65 14 -115 6 -49
12 -106 15 -125 14 -110 25 -200 30 -240 3 -25 8 -53 11 -63 5 -16 -32 -17
-717 -15 l-723 3 -13 50 c-7 28 -15 64 -18 80 -6 33 -97 417 -120 505 -29 111
-45 182 -45 200 0 18 29 18 765 18 l764 0 5 -41z m2568 -27 c-1 -36 -11 -168
-22 -295 -12 -126 -23 -261 -26 -300 -3 -38 -7 -79 -9 -90 -2 -11 -4 -39 -4
-62 l-1 -43 -1059 0 -1059 0 -6 28 c-5 25 -11 72 -20 152 -3 19 -9 73 -15 120
-6 47 -13 110 -16 140 -3 30 -8 62 -10 70 -4 15 -6 30 -25 205 -6 50 -13 102
-16 117 l-5 27 1148 -2 1148 -2 -3 -65z m1745 36 c-3 -17 -8 -44 -12 -61 -8
-37 -25 -115 -30 -135 -6 -26 -67 -284 -71 -305 -3 -11 -7 -31 -10 -45 -7 -36
-53 -231 -60 -257 l-6 -23 -670 0 -670 0 6 78 c4 42 9 97 11 122 3 25 14 147
25 273 11 125 23 251 26 280 4 28 6 59 6 67 0 8 1 20 3 27 3 9 178 11 730 11
l727 -1 -5 -31z m-4175 -1123 c2 -27 4 -43 53 -423 24 -195 45 -358 45 -362 0
-5 -297 -8 -660 -8 -659 0 -660 0 -660 21 0 11 -18 95 -41 187 -22 92 -45 190
-51 217 -6 28 -14 61 -19 75 -11 33 -58 236 -65 278 l-5 32 700 0 c660 0 701
-1 703 -17z m2338 -10 c-1 -16 -5 -73 -10 -128 -5 -55 -12 -129 -15 -165 -10
-116 -14 -163 -25 -275 -6 -60 -13 -132 -15 -159 -3 -27 -7 -51 -8 -53 -3 -3
-424 -4 -1613 -3 -209 0 -271 3 -271 13 -1 6 -3 30 -6 52 -4 22 -11 83 -17
135 -6 52 -13 106 -16 120 -4 27 -21 157 -29 230 -3 25 -11 93 -18 153 l-13
107 1028 0 1028 0 0 -27z m1580 10 c0 -15 -13 -75 -67 -293 -8 -36 -21 -92
-28 -125 -32 -144 -66 -293 -76 -333 l-12 -42 -591 2 c-518 3 -591 5 -590 18
10 154 16 225 18 229 2 3 7 47 10 96 10 140 27 327 32 360 3 17 5 47 6 68 l0
37 649 0 c606 0 649 -1 649 -17z"/>
<path d="M3457 2460 c-146 -39 -237 -87 -312 -166 -50 -52 -95 -105 -95 -110
0 -2 -14 -26 -31 -54 -31 -51 -67 -149 -74 -205 -12 -95 -13 -144 -5 -211 20
-153 79 -272 195 -388 83 -84 89 -88 183 -135 116 -58 276 -80 410 -56 45 8
88 18 95 22 7 4 17 8 22 9 6 1 41 17 78 35 64 30 183 133 242 209 43 55 102
197 112 273 13 83 8 219 -10 292 -8 30 -44 119 -64 157 -86 158 -263 290 -454
334 -63 15 -226 12 -292 -6z m201 -490 c45 -11 95 -57 119 -109 15 -32 17 -98
3 -106 -5 -3 -10 -14 -10 -24 0 -30 -82 -98 -128 -106 -104 -17 -213 71 -212
172 0 32 30 98 57 128 25 28 73 49 118 54 6 0 29 -4 53 -9z"/>
<path d="M6990 2469 c-184 -46 -271 -93 -382 -206 -45 -46 -135 -191 -142
-230 -2 -10 -11 -46 -20 -79 -33 -127 -17 -303 39 -429 10 -22 17 -43 17 -47
-1 -5 2 -8 7 -8 5 0 12 -8 16 -19 5 -16 16 -31 55 -78 5 -7 10 -16 10 -22 0
-5 4 -11 9 -13 9 -3 76 -57 110 -88 9 -8 34 -24 56 -35 22 -11 42 -23 45 -26
5 -6 119 -44 160 -53 66 -14 154 -17 216 -7 101 16 109 18 159 40 25 11 45 17
45 13 0 -4 4 -2 8 3 4 6 26 20 50 33 104 56 200 161 262 288 54 109 65 160 65
299 0 154 -22 232 -102 358 -39 61 -152 187 -168 187 -4 0 -25 13 -48 28 -45
30 -125 64 -197 83 -56 15 -223 20 -270 8z m195 -515 c22 -12 52 -39 67 -60
67 -95 10 -231 -110 -265 -134 -38 -265 123 -200 245 19 35 76 87 105 96 44
14 94 8 138 -16z"/>
</g>
</svg>
