<?xml version="1.0" standalone="no"?>
<!DOCTYPE svg PUBLIC "-//W3C//DTD SVG 20010904//EN"
 "http://www.w3.org/TR/2001/REC-SVG-20010904/DTD/svg10.dtd">
<svg version="1.0" xmlns="http://www.w3.org/2000/svg"
 width="512.000000pt" height="512.000000pt" viewBox="0 0 512.000000 512.000000"
 preserveAspectRatio="xMidYMid meet">

<g transform="translate(0.000000,512.000000) scale(0.100000,-0.100000)"
fill="#000000" stroke="none">
<path d="M2513 5107 c-12 -7 -574 -554 -1249 -1216 -900 -884 -1231 -1215
-1245 -1245 -47 -105 0 -228 106 -277 35 -16 68 -19 277 -19 l238 0 2 -1057 3
-1058 27 -51 c40 -76 70 -107 140 -145 l63 -34 492 0 493 0 27 28 28 27 5 788
c4 629 8 792 18 810 29 51 40 52 622 52 582 0 593 -1 622 -52 10 -18 14 -181
18 -810 l5 -788 28 -27 27 -28 493 0 492 0 63 34 c70 38 100 69 140 145 l27
51 3 1058 2 1057 238 0 c208 0 242 3 277 19 49 22 99 77 115 127 14 43 8 120
-14 161 -8 15 -150 162 -315 326 l-301 299 0 769 c0 679 -2 774 -16 800 -29
58 -40 59 -520 59 -485 0 -488 0 -518 -65 -13 -27 -16 -75 -16 -275 l0 -242
-391 384 c-215 210 -400 388 -412 395 -28 16 -66 16 -94 0z m501 -690 c245
-240 457 -442 472 -447 38 -15 76 -4 110 31 l29 30 3 330 3 329 319 0 320 0 0
-752 0 -753 318 -312 317 -312 -278 -1 c-303 0 -322 -3 -346 -57 -8 -17 -11
-350 -11 -1109 0 -1204 4 -1136 -65 -1168 -29 -14 -83 -16 -412 -14 l-378 3
-5 740 -5 740 -23 43 c-35 66 -88 119 -150 149 l-57 28 -615 0 -615 0 -57 -28
c-62 -30 -115 -83 -150 -149 l-23 -43 -5 -740 -5 -740 -378 -3 c-329 -2 -383
0 -412 14 -69 32 -65 -36 -65 1168 0 750 -3 1092 -11 1109 -23 50 -35 52 -338
57 l-283 5 1168 1147 c643 631 1172 1146 1176 1145 4 -1 207 -199 452 -440z"/>
</g>
</svg>
